<?xml version="1.0" ?><svg style="enable-background:new 0 0 64 64;" version="1.1" viewBox="0 0 64 64" xml:space="preserve" xmlns="http://www.w3.org/2000/svg"><style type="text/css">.st0{fill:#4267B2;}.st1{fill:#FFFFFF;}</style><g id="instagram"><circle class="st0" cx="32" cy="32" r="32"/><path class="st1" d="M32,17c-4.1,0-4.6,0-6.2,0.1c-1.6,0.1-2.7,0.3-3.6,0.7c-1,0.4-1.8,0.9-2.6,1.7c-0.8,0.8-1.3,1.6-1.7,2.6   c-0.4,0.9-0.6,2-0.7,3.6C17.1,27.4,17,27.9,17,32c0,4.1,0,4.6,0.1,6.2c0.1,1.6,0.3,2.7,0.7,3.6c0.4,1,0.9,1.8,1.7,2.6   c0.8,0.8,1.6,1.3,2.6,1.7c0.9,0.4,2,0.6,3.6,0.7c1.6,0.1,2.1,0.1,6.2,0.1s4.6,0,6.2-0.1c1.6-0.1,2.7-0.3,3.6-0.7   c1-0.4,1.8-0.9,2.6-1.7c0.8-0.8,1.3-1.6,1.7-2.6c0.4-0.9,0.6-2,0.7-3.6c0.1-1.6,0.1-2.1,0.1-6.2s0-4.6-0.1-6.2   c-0.1-1.6-0.3-2.7-0.7-3.6c-0.4-1-0.9-1.8-1.7-2.6c-0.8-0.8-1.6-1.3-2.6-1.7c-0.9-0.4-2-0.6-3.6-0.7C36.6,17,36.1,17,32,17z    M32,19.4c4,0,4.5,0,6.1,0.1c1.5,0.1,2.3,0.3,2.8,0.5c0.7,0.3,1.2,0.6,1.7,1.1c0.5,0.5,0.8,1,1.1,1.7c0.2,0.5,0.4,1.3,0.5,2.8   c0.1,1.6,0.1,2.1,0.1,6.1s0,4.5-0.1,6.1c-0.1,1.5-0.3,2.3-0.5,2.8c-0.3,0.7-0.6,1.2-1.1,1.7c-0.5,0.5-1,0.8-1.7,1.1   c-0.5,0.2-1.3,0.4-2.8,0.5c-1.6,0.1-2.1,0.1-6.1,0.1s-4.5,0-6.1-0.1c-1.5-0.1-2.3-0.3-2.8-0.5c-0.7-0.3-1.2-0.6-1.7-1.1   c-0.5-0.5-0.8-1-1.1-1.7c-0.2-0.5-0.4-1.3-0.5-2.8c-0.1-1.6-0.1-2.1-0.1-6.1s0-4.5,0.1-6.1c0.1-1.5,0.3-2.3,0.5-2.8   c0.3-0.7,0.6-1.2,1.1-1.7c0.5-0.5,1-0.8,1.7-1.1c0.5-0.2,1.3-0.4,2.8-0.5C27.5,19.4,28,19.4,32,19.4z M32,23.4   c-4.2,0-7.6,3.4-7.6,7.6s3.4,7.6,7.6,7.6s7.6-3.4,7.6-7.6S36.2,23.4,32,23.4z M32,35.8c-2.6,0-4.8-2.1-4.8-4.8s2.1-4.8,4.8-4.8   s4.8,2.1,4.8,4.8S34.6,35.8,32,35.8z M41.8,23.2c0,1-0.8,1.8-1.8,1.8c-1,0-1.8-0.8-1.8-1.8s0.8-1.8,1.8-1.8   C41,21.4,41.8,22.2,41.8,23.2z"/></g></svg>
