<?xml version="1.0" ?><svg style="enable-background:new 0 0 64 64;" version="1.1" viewBox="0 0 64 64" xml:space="preserve" xmlns="http://www.w3.org/2000/svg"><style type="text/css">.st0{fill:#0077B5;}.st1{fill:#FFFFFF;}</style><g id="linkedin"><circle class="st0" cx="32" cy="32" r="32"/><path class="st1" d="M44.1,37.8v7.9h-4.6V38.3c0-1.9-0.7-3.1-2.3-3.1c-1.3,0-2,0.9-2.3,1.7c-0.1,0.3-0.1,0.7-0.1,1.1v7.7h-4.6   c0,0,0.1-12.5,0-13.8h4.6v2c0,0,0,0,0,0h0v0c0.6-0.9,1.7-2.3,4.1-2.3C42,31.5,44.1,33.5,44.1,37.8z M25.6,25.3c-1.6,0-2.6,1-2.6,2.4   c0,1.3,1,2.4,2.5,2.4h0c1.6,0,2.6-1.1,2.6-2.4C28.1,26.3,27.1,25.3,25.6,25.3z M23.3,45.7h4.6V31.9h-4.6V45.7z"/></g></svg>
