<?xml version="1.0" ?><svg style="enable-background:new 0 0 64 64;" version="1.1" viewBox="0 0 64 64" xml:space="preserve" xmlns="http://www.w3.org/2000/svg"><style type="text/css">.st0{fill:#E60023;}.st1{fill:#FFFFFF;}</style><g id="pinterest"><circle class="st0" cx="32" cy="32" r="32"/><path class="st1" d="M32,16c-8.8,0-16,7.2-16,16c0,6.6,3.9,12.2,9.5,14.8c-0.1-1.2-0.2-3,0.1-4.3c0.3-1.1,1.7-7.2,1.7-7.2   s-0.4-0.9-0.4-2.1c0-2,1.2-3.5,2.6-3.5c1.2,0,1.8,0.9,1.8,2c0,1.2-0.8,3-1.2,4.7c-0.3,1.4,0.7,2.6,2.1,2.6c2.5,0,4.4-2.6,4.4-6.4   c0-3.3-2.4-5.7-5.8-5.7c-4.2,0-6.7,3.2-6.7,6.5c0,1.3,0.5,2.2,1.2,2.9c0.1,0.2,0.2,0.3,0.1,0.5c-0.1,0.5-0.4,1.6-0.4,1.8   C24.8,38.5,24.7,38.6,24.4,38.4c-1.9-0.9-3.1-3.6-3.1-5.8c0-4.4,3.2-8.4,9.3-8.4c4.9,0,8.7,3.5,8.7,8.1c0,4.8-3,8.7-7.2,8.7   c-1.4,0-2.7-0.7-3.2-1.6c0,0-0.7,2.7-0.9,3.4c-0.3,1.2-1.1,2.7-1.6,3.6c1.2,0.4,2.5,0.6,3.8,0.6c8.8,0,16-7.2,16-16   C48,23.2,40.8,16,32,16z"/></g></svg>
