<?xml version="1.0" ?><svg viewBox="0 0 240 234" xmlns="http://www.w3.org/2000/svg"><path d="M42.5 0h155C221 0 240 19 240 42.5v149c0 23.5-19 42.5-42.5 42.5h-155C19 234 0 215 0 191.5v-149C0 19 19 0 42.5 0z" fill="#1f0040"/><path d="M96.4 140H59.2l-7.6 23.5c-.2.9-1 1.5-1.9 1.4H30.9c-1.1 0-1.4-.6-1.1-1.8l32.2-92.7c.3-1 .6-2.1 1-3.3.4-2.1.6-4.3.6-6.5-.1-.5.3-1 .8-1.1h25.9c.8 0 1.2.3 1.3.8l36.5 103c.3 1.1 0 1.6-1 1.6h-20.9c-.7.1-1.4-.4-1.6-1.1L96.4 140zM65 120.3h25.4c-.6-2.1-1.4-4.6-2.3-7.2-.9-2.7-1.8-5.6-2.7-8.6-.9-3.1-1.8-6.1-2.7-9.2-.9-3.1-1.7-6-2.4-8.7-.7-2.7-1.3-5.1-1.8-7.2h-.2c-.7 3.2-1.6 6.4-2.6 9.6-1.1 3.4-2.2 6.9-3.3 10.5-1.1 3.6-2.2 7.1-3.3 10.4-1.1 3.4-2.1 6.5-3.1 9.4zm104.7-45.2c-3.2.1-6.4-1.1-8.7-3.4-2.2-2.3-3.4-5.3-3.3-8.4-.1-3.1 1.1-6.1 3.3-8.3 2.3-2.3 5.4-3.5 8.7-3.4 3.2-.1 6.3 1.1 8.6 3.4 2.2 2.2 3.4 5.2 3.3 8.3.1 3.1-1.1 6.1-3.3 8.4-2.3 2.3-5.4 3.5-8.6 3.4zm-11.2 86.8v-77c0-1 .4-1.4 1.3-1.4h19.8c.9 0 1.3.5 1.3 1.4v77c0 1.1-.4 1.6-1.3 1.6h-19.6c-1 0-1.5-.6-1.5-1.6z" fill="#d291ff"/></svg>
