<?xml version="1.0" ?><svg viewBox="0 0 240 234" xmlns="http://www.w3.org/2000/svg"><path d="M42.5 0h155C221 0 240 19 240 42.5v149c0 23.5-19 42.5-42.5 42.5h-155C19 234 0 215 0 191.5v-149C0 19 19 0 42.5 0z" fill="#00005b"/><path d="M57 164.1V61.2c0-.7.3-1.1 1-1.1 1.7 0 3.3 0 5.6-.1 2.4-.1 4.9-.1 7.6-.2s5.6-.1 8.7-.2 6.1-.1 9.1-.1c8.2 0 15 1 20.6 3.1 5 1.7 9.6 4.5 13.4 8.2 3.2 3.2 5.7 7.1 7.3 11.4 1.5 4.2 2.3 8.5 2.3 13 0 8.6-2 15.7-6 21.3s-9.6 9.8-16.1 12.2c-6.8 2.5-14.3 3.4-22.5 3.4-2.4 0-4 0-5-.1s-2.4-.1-4.3-.1v32.1c.1.7-.4 1.3-1.1 1.4h-19.4c-.8 0-1.2-.4-1.2-1.3zm21.8-84.7v33.6c1.4.1 2.7.2 3.9.2h5.3c3.9 0 7.8-.6 11.5-1.8 3.2-.9 6-2.8 8.2-5.3 2.1-2.5 3.1-5.9 3.1-10.3.1-3.1-.7-6.2-2.3-8.9-1.7-2.6-4.1-4.6-7-5.7-3.7-1.5-7.7-2.1-11.8-2-2.6 0-4.9 0-6.8.1-2-.1-3.4 0-4.1.1zm110.9 27.7c-1.6-2.9-4.1-5.2-7.2-6.6-3.1-1.4-6.4-2.1-9.8-2.1-3.3-.1-6.6.6-9.6 2-2.5 1.2-4.5 3.2-5.7 5.7-1.2 2.5-1.8 5.2-1.8 7.9 0 2.9.6 5.7 1.8 8.3 1.2 2.6 3.1 4.7 5.5 6.1 2.6 1.5 5.5 2.2 8.5 2.1 2.1 0 4.3-.3 6.3-.9 1.9-.5 3.7-1.4 5.3-2.5.4-.3.8-.5 1.3-.5.4 0 .7.1.9.4l6.9 7.5c.3.3.4.7.3 1.1-.1.4-.3.7-.6.9-2.8 2.3-6.1 4.1-9.6 5.2-3.9 1.2-8 1.8-12.1 1.8-5.5.1-10.9-1.3-15.7-4-4.5-2.6-8.2-6.4-10.7-11-2.6-4.8-3.9-10.3-3.9-16.3-.1-4.9 1-9.8 3.2-14.3 2.2-4.4 5.5-8.1 9.7-10.8 4.4-2.8 9.6-4.2 15.5-4.2 4.1 0 8.2.7 12 2.2 3.6 1.4 6.8 3.6 9.5 6.4.3.3.5.7.5 1.1 0 .4-.1.8-.3 1.1l-6.8 7.2c-.4.4-.8.6-1.3.6-.5 0-1-.2-1.4-.6z" fill="#9999ff"/></svg>
